<?xml version="1.0" standalone="no"?>
<!DOCTYPE svg PUBLIC "-//W3C//DTD SVG 20010904//EN"
 "http://www.w3.org/TR/2001/REC-SVG-20010904/DTD/svg10.dtd">
<svg version="1.0" xmlns="http://www.w3.org/2000/svg"
 width="500.000000pt" height="500.000000pt" viewBox="0 0 500.000000 500.000000"
 preserveAspectRatio="xMidYMid meet">
<metadata>
Created by potrace 1.14, written by Peter Selinger 2001-2017
</metadata>
<g transform="translate(0.000000,500.000000) scale(0.100000,-0.100000)"
fill="#000000" stroke="none">
<path d="M1807 3564 c-1 -1 -28 -4 -59 -8 -88 -9 -146 -25 -235 -67 -90 -41
-204 -116 -269 -177 -79 -74 -72 15 -72 -980 l0 -893 51 48 c334 311 705 356
1057 129 38 -25 103 -74 144 -111 l76 -66 53 50 c117 114 257 197 407 243 62
19 97 23 205 22 119 0 138 -3 220 -31 131 -45 264 -125 370 -221 17 -15 41
-36 53 -46 l23 -20 -2 902 -1 902 -47 46 c-174 175 -397 274 -619 277 -190 2
-401 -90 -591 -257 -36 -31 -67 -56 -70 -56 -3 0 -19 12 -36 26 -224 196 -388
273 -613 288 -23 1 -43 2 -45 0z"/>
</g>
</svg>
